<svg width="18" height="20" viewBox="0 0 18 20" fill="none" xmlns="http://www.w3.org/2000/svg">
<path d="M5.04065 1.97986C4.47008 1.97986 3.69637 1.97469 2.4556 1.97339C2.13865 1.97272 1.83248 2.08842 1.59519 2.29853C1.35789 2.50864 1.20597 2.79855 1.16825 3.11325L1.15919 3.2685V17.4966C1.15919 17.8398 1.29551 18.1689 1.53815 18.4115C1.78078 18.6541 2.10987 18.7905 2.45301 18.7905L15.3912 18.7982C15.7081 18.7985 16.0141 18.6825 16.2512 18.4722C16.4883 18.2618 16.6399 17.9718 16.6773 17.6571L16.685 17.5057V3.27368C16.685 2.93054 16.5487 2.60145 16.3061 2.35881C16.0634 2.11617 15.7343 1.97986 15.3912 1.97986H12.8036" stroke="#044176" stroke-width="0.953281" stroke-linecap="round" stroke-linejoin="round"/>
<path d="M3.74663 7.15513H10.2157M3.74663 9.74277H12.8034M3.74663 12.3304H7.62809M3.74663 14.918H11.5095M6.33427 0.686035H11.5095C11.8527 0.686035 12.1818 0.822348 12.4244 1.06499C12.667 1.30762 12.8034 1.63671 12.8034 1.97985C12.8034 2.323 12.667 2.65208 12.4244 2.89472C12.1818 3.13736 11.8527 3.27367 11.5095 3.27367H6.33427C5.99112 3.27367 5.66204 3.13736 5.4194 2.89472C5.17676 2.65208 5.04045 2.323 5.04045 1.97985C5.04045 1.63671 5.17676 1.30762 5.4194 1.06499C5.66204 0.822348 5.99112 0.686035 6.33427 0.686035V0.686035Z" stroke="#044176" stroke-width="0.953281" stroke-linecap="round" stroke-linejoin="round"/>
</svg>
