<svg width="19" height="19" viewBox="0 0 19 19" fill="none" xmlns="http://www.w3.org/2000/svg">
<rect width="19" height="19" fill="#BFBFBF"/>
<g id="&#208;&#147;&#208;&#187;&#208;&#176;&#208;&#178;&#208;&#189;&#208;&#176;&#209;&#143;" clip-path="url(#clip0_0_1)">
<rect width="1440" height="4313" transform="translate(-1103 -4169)" fill="#0A1128"/>
<g id="&#209;&#132;&#209;&#131;&#209;&#130;&#208;&#181;&#209;&#128;">
<g id="&#208;&#176;&#208;&#180;&#209;&#128;&#208;&#181;&#209;&#129;&#208;&#176;">
</g>
<g id="MapPin">
<path id="Vector" d="M9.04204 9.60703C10.2905 9.60703 11.3026 8.59495 11.3026 7.34648C11.3026 6.09802 10.2905 5.08594 9.04204 5.08594C7.79357 5.08594 6.78149 6.09802 6.78149 7.34648C6.78149 8.59495 7.79357 9.60703 9.04204 9.60703Z" stroke="white" stroke-width="1.13027" stroke-linecap="round" stroke-linejoin="round"/>
<path id="Vector_2" d="M14.6934 7.34676C14.6934 12.433 9.04199 16.3889 9.04199 16.3889C9.04199 16.3889 3.39063 12.433 3.39063 7.34676C3.39063 5.84793 3.98604 4.41048 5.04588 3.35065C6.10571 2.29081 7.54316 1.6954 9.04199 1.6954C10.5408 1.6954 11.9783 2.29081 13.0381 3.35065C14.0979 4.41048 14.6934 5.84793 14.6934 7.34676V7.34676Z" stroke="white" stroke-width="1.13027" stroke-linecap="round" stroke-linejoin="round"/>
</g>
</g>
</g>
<defs>
<clipPath id="clip0_0_1">
<rect width="1440" height="4313" fill="white" transform="translate(-1103 -4169)"/>
</clipPath>
</defs>
</svg>
