<svg width="29" height="29" viewBox="0 0 29 29" fill="none" xmlns="http://www.w3.org/2000/svg">
<path d="M10.4785 14.1375C11.4111 16.0633 12.9683 17.6166 14.8965 18.5442C15.0387 18.6115 15.196 18.6407 15.353 18.6288C15.5099 18.6168 15.661 18.5643 15.7914 18.4762L18.6234 16.5844C18.7486 16.4995 18.8931 16.4478 19.0437 16.4339C19.1942 16.42 19.3459 16.4445 19.4844 16.5051L24.7859 18.7821C24.9671 18.8575 25.1185 18.9904 25.2168 19.1603C25.315 19.3302 25.3547 19.5276 25.3297 19.7223C25.1617 21.0338 24.5215 22.2391 23.529 23.1128C22.5365 23.9864 21.2597 24.4685 19.9375 24.4688C15.8515 24.4688 11.9329 22.8456 9.04364 19.9564C6.1544 17.0672 4.53125 13.1485 4.53125 9.06254C4.53155 7.74032 5.01362 6.4635 5.88726 5.47102C6.76089 4.47853 7.96623 3.83838 9.27773 3.67035C9.4724 3.64534 9.66988 3.68502 9.83977 3.78328C10.0097 3.88153 10.1426 4.03291 10.218 4.2141L12.4949 9.52699C12.5541 9.66332 12.5789 9.81212 12.5671 9.96028C12.5552 10.1084 12.5071 10.2514 12.427 10.3766L10.5352 13.2539C10.4509 13.3841 10.4015 13.5337 10.3916 13.6884C10.3817 13.8431 10.4116 13.9977 10.4785 14.1375V14.1375Z" stroke="white" stroke-width="2" stroke-linecap="round" stroke-linejoin="round"/>
</svg>
