<svg width="28" height="24" viewBox="0 0 28 24" fill="none" xmlns="http://www.w3.org/2000/svg">
<path d="M12.321 6.00045C12.321 3.25045 14.6335 0.962955 17.3835 1.00045C18.3465 1.01157 19.2859 1.3006 20.0886 1.8328C20.8914 2.365 21.5233 3.11771 21.9085 4.00045H26.321L22.2835 8.03795C22.0229 12.0937 20.2276 15.8979 17.2625 18.6773C14.2974 21.4566 10.3851 23.0025 6.32099 23.0005C2.32099 23.0005 1.32099 21.5005 1.32099 21.5005C1.32099 21.5005 5.32099 20.0005 7.32099 17.0005C7.32099 17.0005 -0.679012 13.0005 1.32099 2.00045C1.32099 2.00045 6.32099 7.00045 12.321 8.00045V6.00045Z" stroke="white" stroke-width="2" stroke-linecap="round" stroke-linejoin="round"/>
</svg>
